<svg clip-rule="evenodd" fill-rule="evenodd" height="256" image-rendering="optimizeQuality" shape-rendering="geometricPrecision" text-rendering="geometricPrecision" viewBox="0 0 1077431 1077431" width="256" xmlns="http://www.w3.org/2000/svg"><g id="Layer_x0020_1"><g id="_380871912"><path d="m157854 983631h53983c61744 0 61744-93346 0-93346h-146236c-61744 0-61744-93342 0-93342h143263c61743 0 61748-93345 0-93345h-51450c-61745 0-61745-93344 0-93344h256282 91166 138976c61744 0 61744 93344 0 93344h-25726c-61746 0-61742 93345 0 93345h70146c61745 0 61745 93342 0 93342h-73118c-61745 0-61745 93346 0 93346h22475c61746 0 61746 93343 0 93343h-132753-91166-255842c-61746 0-61746-93343 0-93343z" fill="#e6e6e6"/><path d="m437144 610252h480679c61745 0 61737 93346 0 93346h-47933c-65238 0-70998 93343 7144 93343h134798c61744 0 61737 93347 0 93347h-194183c-61744 0-61744 93343 0 93343h46988c61742 0 61739 93346 0 93346h-427493l-25756-3c-61741 0-61741-93343 0-93343h25756c62146 0 64738-93346 0-93346h-109938c-61739 0-61741-93342 0-93342h79671c68368 2104 76459-93345 0-93345h-48673c-61746 0-61746-93344 0-93344h78940zm540869 373379h-276c-25670 0-46671 21000-46671 46670v5c0 25671 21001 46668 46671 46668h276c25670 0 46670-20997 46670-46668v-5c0-25670-21000-46670-46670-46670z" fill="#c2c2c2"/></g><path d="m454 454h1076524v1076524h-1076524z" fill="none" stroke="#fff" stroke-width="908.317"/><g id="_380875368"><path d="m413552 567189h30291v-60006c-18977-18930-37474-36403-42683-64439-5659-30462-10412-93272-11045-169898-1517-183708 298721-183708 297203 0-633 76626-5385 139436-11045 169898-5209 28036-23706 45509-42682 64439v60006h30289c91477 0 166322 74843 166322 166321v140024c0 50296-41150 91446-91446 91446h-400080c-50296 0-91446-41150-91446-91446v-140024c0-91478 74845-166321 166322-166321z" fill="#ff8527"/><path d="m413554 567187c84645 117923 165343 121649 250324 0 91478 0 166324 74845 166324 166320v140026c0 50295-41150 91443-91445 91443h-400082c-50295 0-91445-41148-91445-91443v-140026c0-91479 74846-166320 166324-166320z" fill="#ffd027"/><path d="m247230 873534v-140024c0-91478 74845-166321 166322-166321h30291v-60006c-18977-18930-37474-36403-42683-64439-5659-30462-10412-93272-11045-169898-1517-183708 298721-183708 297203 0-633 76626-5385 139436-11045 169898-5209 28036-23706 45509-42682 64439v60006h30289c91477 0 166322 74843 166322 166321v140024" fill="none" stroke="#105286" stroke-width="16820.6"/><path d="m390851 313191 1606 2044s65557-51916 68023-104328c0 0 99927 138946 226007 67316 267-153 519-310 785-463l45-4913c1518-183709-298718-183709-297202 0 116 13943 367 27427 736 40344z" fill="#4d4d4d"/><path d="m443843 507182s86001 120030 189748 0" fill="none" stroke="#105286" stroke-width="16820.6"/><path d="m538944 1037781-65490-57782 39668-324752h51645l39669 324752z" fill="#fff"/><path d="m538944 1007042 41140-36298-35721-292447h-10838l-35721 292447z" fill="#ff576b"/><path d="m538944 1037781-65490-57782 39668-324752h51645l39669 324752z" fill="none" stroke="#105286" stroke-width="16820.6"/></g><path d="m322004 220243v203849h-280473v-203849" fill="none" stroke="#105286" stroke-width="16820.6"/><path d="m59272 238658h244990v163736h-244990z" fill="#00dcab"/><path d="m41531 220243h280473v-46245c0-15792-12920-28713-28712-28713h-223049c-15792 0-28712 12921-28712 28713z" fill="none" stroke="#105286" stroke-width="16820.6"/><path d="m58628 203625h246278v-25740c0-8791-7190-15980-15980-15980h-214316c-8792 0-15982 7189-15982 15980z" fill="#ff576b"/><g id="_380889072" fill="none" stroke="#105286" stroke-width="16820.6"><path d="m98660 112327v65584"/><path d="m154065 112327v65584"/><path d="m209470 112327v65584"/><path d="m264876 112327v65584"/></g><g id="_380888160" fill="#fff"><path d="m70968 248267h25743v25743h-25743z"/><path d="m119932 248267h25743v25743h-25743z"/><path d="m168895 248267h25743v25743h-25743z"/><path d="m217859 248267h25743v25743h-25743z"/><path d="m266823 248267h25743v25743h-25743z"/></g><g id="_380874888" fill="#fff"><path d="m70968 285560h25743v25743h-25743z"/><path d="m119932 285560h25743v25743h-25743z"/><path d="m168895 285560h25743v25743h-25743z"/><path d="m217859 285560h25743v25743h-25743z"/><path d="m266823 285560h25743v25743h-25743z"/></g><g id="_380900352" fill="#fff"><path d="m70968 322853h25743v25743h-25743z"/><path d="m119932 322853h25743v25743h-25743z"/><path d="m168895 322853h25743v25743h-25743z"/><path d="m217859 322853h25743v25743h-25743z"/><path d="m266823 322853h25743v25743h-25743z"/></g><g id="_380872392" fill="#fff"><path d="m70968 360146h25743v25743h-25743z"/><path d="m119932 360146h25743v25743h-25743z"/><path d="m168895 360146h25743v25743h-25743z"/><path d="m217859 360146h25743v25743h-25743z"/><path d="m266823 360146h25743v25743h-25743z"/></g><g id="_380879424" fill="#fff"><path d="m866879 690270c10878 1722 21384 4562 31397 8398l26804-30132c9560 5519 19119 11038 28679 16557l-12707 38322c8418 6843 16116 14539 22956 22959l38325-12708c5519 9560 11038 19120 16557 28679l-30140 26812c3833 10012 6677 20512 8399 31388l39521 8154c0 11038-1 22076 0 33114l-39515 8151c-1723 10878-4561 21385-8397 31397l30132 26806c-5519 9558-11038 19118-16557 28677l-38324-12707c-6842 8418-14537 16116-22958 22956l12708 38325c-9560 5519-19120 11039-28679 16558l-26813-30141c-10010 3833-20511 6678-31387 8399l-8152 39521c-11039 0-22077 0-33115 0l-8151-39515c-10879-1722-21384-4561-31397-8397l-26806 30133c-9559-5519-19119-11039-28678-16558l12707-38323c-8419-6843-16116-14537-22957-22958l-38323 12707c-5519-9559-11038-19119-16558-28677l30141-26814c-3835-10011-6679-20512-8399-31388l-39521-8152c0-11038 0-22077 0-33114l39514-8152c1722-10879 4562-21385 8398-31397l-30133-26805c5520-9560 11039-19119 16558-28679l38322 12707c6842-8419 14538-16117 22958-22958l-12707-38322c9559-5519 19119-11038 28679-16557l26809 30136c10013-3834 20517-6675 31393-8399l8151-39516h33115z"/><circle cx="842170" cy="845255" r="139577"/></g><path d="m866879 690270c10878 1722 21384 4562 31397 8398l26804-30132c9560 5519 19119 11038 28679 16557l-12707 38322c8418 6843 16116 14539 22956 22959l38325-12708c5519 9560 11038 19120 16557 28679l-30140 26812c3833 10012 6677 20512 8399 31388l39521 8154c0 11038-1 22076 0 33114l-39515 8151c-1723 10878-4561 21385-8397 31397l30132 26806c-5519 9558-11038 19118-16557 28677l-38324-12707c-6842 8418-14537 16116-22958 22956l12708 38325c-9560 5519-19120 11039-28679 16558l-26813-30141c-10010 3833-20511 6678-31387 8399l-8152 39521c-11039 0-22077 0-33115 0l-8151-39515c-10879-1722-21384-4561-31397-8397l-26806 30133c-9559-5519-19119-11039-28678-16558l12707-38323c-8419-6843-16116-14537-22957-22958l-38323 12707c-5519-9559-11038-19119-16558-28677l30141-26814c-3835-10011-6679-20512-8399-31388l-39521-8152c0-11038 0-22077 0-33114l39514-8152c1722-10879 4562-21385 8398-31397l-30133-26805c5520-9560 11039-19119 16558-28679l38322 12707c6842-8419 14538-16117 22958-22958l-12707-38322c9559-5519 19119-11038 28679-16557l26809 30136c10013-3834 20517-6675 31393-8399l8151-39516h33115z" fill="none" stroke="#105286" stroke-width="16820.6"/><circle cx="842170" cy="845255" fill="#00dcab" r="139577"/><path d="m804343 754573 27926 66947m33777 14179 50961-20395" fill="none" stroke="#105286" stroke-width="16820.6"/><circle cx="842170" cy="845255" fill="none" r="25712" stroke="#105286" stroke-width="16820.6"/><circle cx="842170" cy="845255" fill="#fff" r="16212"/><g fill="none" stroke-width="16820.6"><path d="m841184 715065v12890" stroke="#fff"/><path d="m796716 723253 4409 12113" stroke="#fff"/><path d="m757730 746157 8285 9875" stroke="#fff"/><path d="m728928 781014 11164 6446" stroke="#fff"/><path d="m713786 823620 12695 2238" stroke="#fff"/><path d="m714128 868834 12695-2239" stroke="#fff"/><path d="m729915 911205 11163-6445" stroke="#fff"/><path d="m759240 945621 8287-9874" stroke="#fff"/><path d="m798569 967932 4408-12113" stroke="#fff"/><path d="m843157 975447v-12891" stroke="#fff"/><path d="m887625 967258-4409-12114" stroke="#fff"/><path d="m926611 944354-8287-9876" stroke="#fff"/><path d="m955411 909497-11163-6445" stroke="#fff"/><path d="m970555 866892-12695-2238" stroke="#fff"/><path d="m970211 821677-12695 2238" stroke="#fff"/><path d="m954426 779306-11164 6446" stroke="#fff"/><path d="m925100 744889-8286 9876" stroke="#fff"/><path d="m885771 722579-4409 12112" stroke="#fff"/><path d="m842170 845256v97655" stroke="#105286"/></g><circle cx="250592" cy="748960" fill="#fff" r="109334"/><circle cx="250592" cy="748960" fill="#53b4ed" r="90413"/><circle cx="250592" cy="748960" fill="none" r="109334" stroke="#105286" stroke-width="16820.6"/><path d="m186199 760524 38373 29961 78848-96719" fill="none" stroke="#fff" stroke-width="16820.6"/><path d="m0 0h55718v209734h-55718z" fill="#fff" transform="matrix(.761 -.439 .439 .761 790187 167905)"/><path d="m801728 161243 19150-11057 85378 147673-19151 11057z" fill="#ff576b"/><path d="m832595 143420 92167 159636-42409 24485-92166-159637" fill="none" stroke="#105286" stroke-width="16820.6"/><path d="m0 0h55718v209734h-55718z" fill="#fff" transform="matrix(-.761 -.439 -.439 .761 1059340 167905)"/><path d="m1047698 161185-19149-11056-85281 147730 19151 11057z" fill="#ff576b"/><path d="m1016929 143420-92167 159636 42410 24485 92165-159637" fill="none" stroke="#105286" stroke-width="16820.6"/><circle cx="933763" cy="355595" fill="#fff" r="81181"/><circle cx="933763" cy="355595" fill="none" r="81181" stroke="#105286" stroke-width="16820.6"/><circle cx="933763" cy="355595" fill="#ffd027" r="64678"/><path d="m933762 314951 13075 26937 29660 4112-21578 20760 5254 29478-26411-14107-26412 14107 5255-29478-21578-20760 29660-4112z" fill="#fff"/><circle cx="752988" cy="497685" fill="none" r="16672" stroke="#105286" stroke-width="16820.6"/><path d="m1010748 23290 9999 9998m27254-9998-10000 9999m-17253 17254-10000 10000m27253-10000 10000 10000" fill="none" stroke="#105286" stroke-width="16820.6"/><path d="m34094 23290 9999 9998m27254-9998-10000 9999m-17253 17254-10000 10000m27253-10000 10000 10000" fill="none" stroke="#105286" stroke-width="16820.6"/><path d="m34094 1007039 9999 9998m27254-9998-10000 10000m-17253 17253-10000 10000m27253-10000 10000 10000" fill="none" stroke="#105286" stroke-width="16820.6"/><circle cx="373414" cy="60506" fill="none" r="16672" stroke="#105286" stroke-width="16820.6"/><circle cx="73705" cy="523445" fill="none" r="16672" stroke="#105286" stroke-width="16820.6"/><path d="m254865 479547 9999 9999m27254-9999-10000 10000m-17253 17253-10000 10000m27253-10000 10000 10000" fill="none" stroke="#105286" stroke-width="16820.6"/><path d="m1005230 483481 9999 9999m27254-9999-9999 10000m-17254 17253-10000 10000m27254-10000 9999 10000" fill="none" stroke="#105286" stroke-width="16820.6"/><path d="m1029946 971451 9998 9999m27255-9999-10000 10000m-17253 17253-10000 10000m27253-10000 10000 10000" fill="none" stroke="#105286" stroke-width="16820.6"/><circle cx="662957" cy="1038577" fill="none" r="16672" stroke="#105286" stroke-width="16820.6"/><path d="m713934 115621 9998 9999m27255-9999-10000 10000m-17253 17253-10000 10000m27253-10000 10000 10000" fill="none" stroke="#105286" stroke-width="16820.6"/></g></svg>