<svg id="Capa_1" enable-background="new 0 0 512 512" height="512" viewBox="0 0 512 512" width="512" xmlns="http://www.w3.org/2000/svg"><g><g><g><circle cx="256.007" cy="122.089" fill="#f7e365" r="114.151"/></g><g><path d="m324.103 30.468c14.153 19.011 22.53 42.575 22.53 68.097 0 63.044-51.107 114.151-114.151 114.151-25.522 0-49.086-8.378-68.096-22.53 20.807 27.949 54.099 46.055 91.621 46.055 63.044 0 114.151-51.107 114.151-114.151 0-37.523-18.105-70.815-46.055-91.622z" fill="#f3d332"/></g><g><g><path d="m306.506 121.7 14.842-16.114c2.993-3.25 3.527-8.068 1.318-11.895l-8.736-15.132c-2.209-3.826-6.649-5.773-10.96-4.806l-21.37 4.795c-.255-.147-.427-.247-.682-.394l-6.533-20.904c-1.318-4.217-5.224-7.089-9.642-7.089h-17.473c-4.418 0-8.324 2.871-9.642 7.089l-6.533 20.904c-.255.147-.427.247-.682.394l-21.37-4.795c-4.311-.967-8.751.979-10.96 4.806l-8.736 15.132c-2.209 3.826-1.675 8.645 1.318 11.895l14.842 16.114v.778l-14.842 16.114c-2.993 3.25-3.527 8.068-1.318 11.895l8.736 15.132c2.209 3.826 6.649 5.773 10.96 4.806l21.37-4.795c.255.147.427.247.682.394l6.533 20.904c1.318 4.217 5.224 7.089 9.642 7.089h17.472c4.418 0 8.324-2.871 9.642-7.089l6.533-20.906c.254-.147.426-.246.68-.392l21.372 4.795c4.311.967 8.751-.979 10.96-4.806l8.736-15.132c2.209-3.826 1.675-8.645-1.318-11.895l-14.842-16.114v-.778zm-50.499 16.552c-8.927 0-16.163-7.236-16.163-16.163s7.236-16.163 16.163-16.163 16.163 7.236 16.163 16.163-7.237 16.163-16.163 16.163z" fill="#62a4fb"/></g><g><path d="m306.506 122.478v-.778l14.842-16.114c2.993-3.25 3.527-8.068 1.318-11.895l-8.736-15.132c-2.209-3.826-6.649-5.773-10.96-4.806l-12.133 2.722c2.406 7.141 3.73 14.781 3.73 22.734 0 36.297-27.175 66.228-62.285 70.608l5.347 17.11c1.318 4.217 5.224 7.089 9.642 7.089h17.472c4.418 0 8.324-2.871 9.642-7.089l6.533-20.906c.254-.147.426-.246.68-.393l21.372 4.795c4.311.967 8.751-.979 10.96-4.806l8.736-15.132c2.209-3.826 1.675-8.645-1.318-11.895z" fill="#5392f9"/></g></g></g><g><g><g><path d="m274.198 311.199v95.887h125.263v-95.887c0-20.085-16.282-36.367-36.367-36.367h-52.53c-20.084 0-36.366 16.282-36.366 36.367z" fill="#e175a5"/></g><g><path d="m342.883 311.198c0-13.634-4.528-26.229-12.155-36.367h-20.163c-20.085 0-36.367 16.282-36.367 36.367v95.887h68.685z" fill="#de5791"/></g><g><circle cx="336.829" cy="234.424" fill="#fed2a4" r="40.408"/></g><g><path d="m355.827 198.759c3.023 5.664 4.742 12.129 4.742 18.997 0 22.316-18.091 40.408-40.408 40.408-6.869 0-13.334-1.719-18.997-4.742 6.799 12.738 20.217 21.41 35.665 21.41 22.316 0 40.408-18.091 40.408-40.408 0-15.448-8.672-28.866-21.41-35.665z" fill="#ffbd86"/></g></g><g><g><path d="m112.552 311.199v95.887h125.263v-95.887c0-20.085-16.282-36.367-36.367-36.367h-52.53c-20.084 0-36.366 16.282-36.366 36.367z" fill="#e175a5"/></g><g><path d="m237.815 407.086v-95.887c0-20.085-16.282-36.367-36.367-36.367h-20.163c-7.627 10.137-12.155 22.732-12.155 36.367v95.887z" fill="#de5791"/></g><g><circle cx="175.184" cy="234.424" fill="#fed2a4" r="40.408"/></g><g><path d="m194.181 198.759c3.023 5.664 4.742 12.129 4.742 18.997 0 22.316-18.091 40.408-40.408 40.408-6.869 0-13.334-1.719-18.997-4.742 6.799 12.738 20.217 21.41 35.665 21.41 22.316 0 40.408-18.091 40.408-40.408 0-15.448-8.672-28.866-21.41-35.665z" fill="#ffbd86"/></g></g><g><g><path d="m193.375 311.199v95.887h125.263v-95.887c0-20.085-16.282-36.367-36.367-36.367h-52.53c-20.084 0-36.366 16.282-36.366 36.367z" fill="#62a4fb"/></g><g><path d="m282.272 274.832h-26.265c20.085 0 36.367 16.282 36.367 36.367v95.887h26.265v-95.887c-.001-20.085-16.283-36.367-36.367-36.367z" fill="#5392f9"/></g><g><circle cx="256.007" cy="234.424" fill="#fed2a4" r="40.408"/></g><g><path d="m275.004 198.759c3.023 5.664 4.742 12.129 4.742 18.997 0 22.316-18.091 40.408-40.408 40.408-6.869 0-13.334-1.719-18.997-4.742 6.799 12.738 20.217 21.41 35.665 21.41 22.316 0 40.408-18.091 40.408-40.408 0-15.448-8.672-28.866-21.41-35.665z" fill="#ffbd86"/></g></g></g><g><g><path d="m72.152 358.597h36.367v129.304h-36.367z" fill="#d3effd"/></g><g><path d="m497.412 330.876c-9.468-9.468-24.819-9.468-34.287 0l-76.21 76.21h-70.297c13.39 0 24.245-10.855 24.245-24.245 0-13.39-10.855-24.244-24.244-24.244h-76.774l-15.575-12.627c-14.105-11.437-31.713-17.678-49.873-17.678-17.806 0-35.093 6.001-49.068 17.035l-16.81 13.271v129.304l146.328 9.176c9.764.612 19.557-.553 28.904-3.44l113.68-35.107c6.284-1.941 11.999-5.386 16.649-10.036l83.331-83.331c9.469-9.469 9.469-24.82.001-34.288z" fill="#fed2a4"/></g><g><path d="m497.412 330.876c-9.468-9.468-24.819-9.468-34.287 0l-76.21 76.21h-14.461c-7.348 9.436-15.45 18.643-24.301 27.494-29.08 29.08-61.972 50.176-94.39 62.429l1.084.068c9.764.612 19.557-.553 28.904-3.44l113.68-35.107c6.284-1.941 11.999-5.386 16.649-10.036l83.331-83.331c9.469-9.468 9.469-24.819.001-34.287z" fill="#ffbd86"/></g><g><path d="m7.5 342.434h64.652v161.63h-64.652z" fill="#62a4fb"/></g><g><path d="m49.928 342.434h22.224v161.63h-22.224z" fill="#5392f9"/></g></g><g><circle cx="39.826" cy="374.76" r="8.082"/><circle cx="39.826" cy="407.086" r="8.082"/><path d="m279.669 122.089c0-13.048-10.616-23.663-23.663-23.663-13.048 0-23.663 10.616-23.663 23.663s10.616 23.663 23.663 23.663c13.048 0 23.663-10.615 23.663-23.663zm-23.662 8.663c-4.776 0-8.663-3.886-8.663-8.663s3.886-8.663 8.663-8.663 8.662 3.886 8.662 8.663-3.886 8.663-8.662 8.663z"/><path d="m502.716 325.571c-5.996-5.997-13.969-9.3-22.449-9.3s-16.452 3.303-22.449 9.3l-50.858 50.865v-24.681c0-4.142-3.358-7.5-7.5-7.5-4.143 0-7.5 3.358-7.5 7.5v39.684l-8.147 8.148h-40.237c3.03-4.863 4.782-10.6 4.782-16.741 0-8.484-3.302-16.458-9.296-22.454-3.677-3.677-8.099-6.336-12.924-7.846v-41.347c0-11.047-4.113-21.145-10.877-28.866h47.838c15.914 0 28.861 12.952 28.861 28.871v5.55c0 4.142 3.358 7.5 7.5 7.5 4.143 0 7.5-3.358 7.5-7.5v-5.55c0-21.52-15.577-39.459-36.043-43.159 8.538-8.655 13.819-20.531 13.819-33.62 0-19.428-11.631-36.179-28.29-43.689 13.74-20.129 21.212-44.122 21.212-68.646 0-33.053-13.018-63.954-36.654-87.011-2.967-2.894-7.716-2.834-10.607.132-2.892 2.965-2.833 7.714.132 10.606 20.718 20.21 32.129 47.297 32.129 76.273 0 23.332-7.718 46.112-21.798 64.61-1.331-.112-2.674-.182-4.033-.182-16.971 0-31.898 8.878-40.411 22.226-4.155-6.515-9.838-11.96-16.544-15.831.686-1.161 1.253-2.412 1.67-3.746l4.633-14.823 15.152 3.4c7.551 1.695 15.228-1.67 19.097-8.374l8.736-15.13c3.871-6.703 2.948-15.033-2.296-20.727l-10.521-11.422 10.521-11.422c5.244-5.694 6.167-14.024 2.296-20.726l-8.736-15.131c-3.869-6.704-11.545-10.069-19.097-8.375l-15.153 3.4-4.632-14.823c-2.31-7.387-9.061-12.351-16.8-12.351h-17.473c-7.74 0-14.493 4.964-16.801 12.352l-4.631 14.822-15.152-3.4c-7.553-1.696-15.227 1.671-19.098 8.374l-8.736 15.131c-3.87 6.703-2.947 15.033 2.296 20.726l10.521 11.422-10.521 11.422c-5.243 5.694-6.166 14.022-2.296 20.726l8.736 15.131c3.87 6.703 11.542 10.068 19.098 8.374l15.152-3.4 4.631 14.822c.417 1.334.983 2.586 1.67 3.747-6.706 3.871-12.389 9.315-16.544 15.831-8.513-13.348-23.44-22.226-40.411-22.226-1.359 0-2.702.071-4.033.182-14.079-18.498-21.797-41.277-21.797-64.61 0-58.809 47.844-106.653 106.653-106.653 16.881 0 33.034 3.834 48.011 11.395 3.697 1.867 8.207.383 10.075-3.315 1.866-3.698.383-8.209-3.315-10.075-17.091-8.63-35.52-13.006-54.771-13.006-67.08 0-121.653 54.573-121.653 121.653 0 24.524 7.472 48.518 21.212 68.646-16.659 7.51-28.29 24.262-28.29 43.69 0 13.089 5.281 24.964 13.819 33.62-20.468 3.701-36.045 21.637-36.045 43.155v39.898h-25.397v-8.663c0-4.142-3.358-7.5-7.5-7.5h-64.652c-4.142 0-7.5 3.358-7.5 7.5v161.63c0 4.142 3.358 7.5 7.5 7.5h64.652c4.142 0 7.5-3.358 7.5-7.5v-8.663h28.681l98.363 6.173c4.13.248 7.696-2.882 7.955-7.016s-2.882-7.696-7.016-7.955l-91.612-5.749v-118.624l13.958-11.019c6.285-4.964 13.318-8.816 20.901-11.451 7.584-2.631 15.495-3.965 23.512-3.965 16.392 0 32.425 5.684 45.15 16.009l15.58 12.62c1.335 1.082 3.002 1.672 4.721 1.672h76.773c4.471 0 8.675 1.741 11.836 4.903 3.162 3.162 4.903 7.369 4.903 11.847 0 9.231-7.509 16.741-16.74 16.741s0 0 0 0h-86.876c-1.989 0-3.897.79-5.303 2.197l-10.607 10.607c-2.929 2.929-2.929 7.677 0 10.607 1.464 1.465 3.384 2.197 5.303 2.197s3.839-.732 5.303-2.197l8.41-8.41h154.073c1.989 0 3.898-.791 5.304-2.197l76.202-76.211c3.163-3.164 7.368-4.906 11.841-4.906s8.679 1.742 11.842 4.906c6.529 6.529 6.529 17.154 0 23.684l-83.331 83.332c-3.771 3.77-8.459 6.594-13.561 8.168l-113.687 35.112c-8.489 2.627-17.309 3.677-26.215 3.12l-12.75-.8c-4.137-.261-7.696 2.881-7.955 7.016-.259 4.134 2.882 7.696 7.016 7.955l12.752.8c1.862.116 3.719.174 5.574.174 8.829 0 17.556-1.318 26.009-3.934l113.68-35.11c7.425-2.29 14.252-6.403 19.745-11.894l83.332-83.332c12.376-12.381 12.376-32.522-.002-44.9zm-165.887-124.054c18.146 0 32.908 14.762 32.908 32.908 0 18.145-14.762 32.907-32.908 32.907-18.145 0-32.907-14.762-32.907-32.907 0-18.146 14.762-32.908 32.907-32.908zm-89.558-15c-1.144 0-2.142-.733-2.483-1.825l-6.532-20.904c-.562-1.797-1.778-3.317-3.408-4.258l-.677-.391c-1.15-.666-2.447-1.008-3.756-1.008-.548 0-1.099.06-1.642.182l-21.37 4.795c-1.118.249-2.251-.248-2.823-1.238l-8.736-15.131c-.572-.991-.436-2.223.339-3.064l14.842-16.114c1.275-1.385 1.983-3.198 1.983-5.081v-.78c0-1.883-.708-3.696-1.983-5.081l-14.842-16.114c-.775-.841-.911-2.073-.339-3.064l8.736-15.131c.573-.991 1.71-1.486 2.823-1.238l21.37 4.795c1.838.413 3.766.119 5.398-.826l.677-.391c1.63-.941 2.847-2.461 3.408-4.258l6.532-20.904c.341-1.092 1.339-1.825 2.483-1.825h17.473c1.144 0 2.142.734 2.483 1.825l6.532 20.904c.561 1.795 1.774 3.314 3.402 4.255l.683.394c1.633.944 3.563 1.24 5.398.826l21.37-4.795c1.116-.251 2.251.248 2.823 1.238l8.737 15.132c.571.99.435 2.221-.34 3.063l-14.842 16.114c-1.275 1.385-1.983 3.198-1.983 5.081v.778c0 1.883.708 3.696 1.983 5.081l14.842 16.114c.774.841.911 2.072.339 3.064l-8.736 15.132c-.572.991-1.707 1.484-2.823 1.237l-21.372-4.795c-1.835-.413-3.758-.12-5.388.821l-.69.398c-1.627.942-2.841 2.46-3.401 4.254l-6.533 20.906c-.342 1.092-1.34 1.826-2.483 1.826h-17.474zm8.736 15c18.145 0 32.907 14.762 32.907 32.908 0 18.145-14.762 32.907-32.907 32.907s-32.908-14.762-32.908-32.907c0-18.146 14.762-32.908 32.908-32.908zm-80.823 0c18.145 0 32.908 14.762 32.908 32.908 0 18.145-14.762 32.907-32.908 32.907-18.145 0-32.907-14.762-32.907-32.907 0-18.146 14.762-32.908 32.907-32.908zm-110.532 295.047h-49.652v-146.63h49.652zm15-130.467h21.37v114.304h-21.37zm66.31-40.508c-9.171 3.186-17.675 7.845-25.276 13.848l-.636.502v-28.741c0-15.917 12.95-28.866 28.866-28.866h47.836c-6.764 7.721-10.878 17.819-10.878 28.866v10.373c-3.793-.51-7.628-.777-11.48-.777-9.694 0-19.26 1.613-28.432 4.795zm83.029 14.561c-8.376-6.795-17.943-11.914-28.116-15.181v-13.771c0-15.917 12.95-28.866 28.866-28.866h52.53c15.916 0 28.866 12.95 28.866 28.866v39.896h-68.636z"/></g></g></svg>